<svg width="99" height="99" viewBox="0 0 99 99" fill="none" xmlns="http://www.w3.org/2000/svg">
<path d="M25.7053 11.6368C22.2316 17.0211 19.6263 22.0579 19.9737 22.7526C20.4947 23.2737 26.2263 27.2684 33 31.2632C43.0737 37.3421 46.0263 40.2947 50.3684 48.4579C54.5368 55.9263 55.5789 59.5737 54.7105 63.7421C54.1895 66.8684 54.0158 69.4737 54.5368 69.4737C55.9263 69.4737 67.9105 50.1947 67.3895 48.8053C65.8263 45.6789 34.0421 1.73685 33.1737 1.73685C32.6526 1.73685 29.1789 6.25263 25.7053 11.6368Z" fill="#000"/>
<path d="M65.1316 16.8474C65.6526 18.5842 68.0842 25.7053 70.3421 32.8263L74.5105 45.6789L66.6947 57.8368C60.4421 67.3895 59.5737 69.8211 62.1789 69.1263C65.4789 68.2579 96.9158 43.5947 97.0895 41.6842C97.2632 40.4684 66.3474 13.8947 64.9579 13.8947C64.4368 13.8947 64.4368 15.2842 65.1316 16.8474Z" fill="#000"/>
<path d="M2.77895 45.3316C4.16842 52.1053 5.5579 58.3579 6.25263 59.2263C6.77368 60.0947 11.9842 60.4421 18.4105 59.7474C28.8316 58.7053 30.0474 58.879 34.3895 63.0474C36.9947 65.3053 41.6842 67.9105 44.8105 68.6053C49.8474 69.6474 50.3684 69.3 50.3684 65.6526C50.3684 63.3947 47.7632 57.6632 44.4632 52.8C38.7316 44.2895 38.2105 43.9421 20.4947 38.5579C10.5947 35.4316 2.08421 33 1.56316 33C1.04211 33 1.56316 38.5579 2.77895 45.3316Z" fill="#000"/>
<path d="M31.4368 77.1158C25.8789 82.8474 25.7053 83.0211 29.1789 84.9316C34.7368 87.8842 37.1684 87.1895 43.2474 80.9368C49.1526 74.8579 48.9789 74.1632 41.5105 72.4263C38.0368 71.5579 35.9526 72.4263 31.4368 77.1158Z" fill="#000"/>
<path d="M46.8947 81.4579C43.5947 84.2368 41.1632 86.8421 41.6842 87.1895C42.2053 87.5368 48.2842 90.1421 55.2316 92.9211L67.9105 97.9579L75.5526 89.2737C79.721 84.5842 83.1947 80.2421 83.3684 79.7211C83.3684 78.679 65.4789 76.4211 57.4895 76.4211C55.0579 76.4211 50.1947 78.8526 46.8947 81.4579Z" fill="#000"/>
</svg>
